<?xml version="1.0" encoding="UTF-8"?> <!-- Generator: Adobe Illustrator 15.1.0, SVG Export Plug-In . SVG Version: 6.00 Build 0) --> <svg xmlns="http://www.w3.org/2000/svg" xmlns:xlink="http://www.w3.org/1999/xlink" id="Layer_1" x="0px" y="0px" width="58.785px" height="63.766px" viewBox="0 0 58.785 63.766" xml:space="preserve"> <g> <g> <path fill="#142667" d="M57.09,7.23c-3.76,0.021-17.854,0.01-26.275,0.004c-0.138-0.007-0.276-0.003-0.413-0.003 c-1.717-0.001-3.434-0.001-5.15-0.003c-0.102,0-0.202-0.002-0.304,0c-2.393-0.001-4.786-0.002-7.18-0.003 c-0.223,0-0.445-0.001-0.674-0.001c-0.057-0.215-0.101-0.373-0.141-0.531c-0.825-3.211-2.816-5.329-5.971-6.344 c-0.447-0.146-0.912-0.233-1.369-0.349C8.908,0,8.201,0,7.496,0C6.697,0.251,5.863,0.421,5.108,0.77 c-2.757,1.271-4.426,3.42-4.974,6.42C0.117,7.285,0.062,7.375,0.023,7.467C0.016,23.693,0.008,39.92,0,56.145 c0.397,1.119,0.652,2.316,1.221,3.34c1.328,2.386,3.442,3.734,6.146,4.146c0.119,0.018,0.232,0.074,0.348,0.113 c14.648,0.007,29.297,0.014,43.947,0.021c0.697-0.344,0.926-0.904,0.91-1.672c-0.039-1.861-0.012-3.727-0.011-5.674 c0.808,0.001,1.566,0.001,2.324,0.002c0.727,0,1.454-0.039,2.178,0.01c0.77,0.054,1.321-0.226,1.698-0.879 C58.77,39.74,58.777,23.93,58.785,8.119C58.409,7.46,57.857,7.228,57.09,7.23z M2.517,8.532c0.004-3.207,2.532-5.858,5.7-6.03 c3.229-0.174,5.982,2.097,6.393,5.282c0.051,0.391,0.087,0.785,0.087,1.178c-0.001,13.15-0.009,26.301-0.016,39.453 c0,0.18,0,0.361,0,0.66c-4.106-3.625-9.009-2.912-12.134-0.041c-0.021-0.191-0.053-0.34-0.053-0.488 C2.499,35.208,2.5,21.87,2.517,8.532z M50.033,61.274c-0.22,0-0.401,0-0.583,0c-13.565-0.007-27.13-0.012-40.694-0.024 c-3.54-0.002-6.247-2.659-6.265-6.116c-0.017-2.977,2.241-5.567,5.201-5.97c3.104-0.425,5.936,1.421,6.737,4.415 c0.139,0.518,0.184,1.061,0.245,1.594c0.089,0.76,0.534,1.194,1.302,1.228c0.187,0.008,0.373,0.002,0.561,0.002 c10.909,0.006,21.819,0.011,32.729,0.017c0.244,0,0.489,0,0.769,0C50.035,58.042,50.033,59.61,50.033,61.274z M56.229,53.885 c-13.041-0.006-26.037-0.013-39.029-0.02c0.008-14.729,0.016-29.408,0.021-44.15c0.254,0.001,0.477,0.001,0.699,0.001 c2.34,0.001,4.68,0.002,7.02,0.003c0.111,0.002,0.219,0,0.328,0c0.316,0.001,0.631,0.001,0.945,0.001 c1.039,0.001,2.502,0.001,4.232,0.002c0.096,0,0.193,0.002,0.291,0c8.068,0.005,21.521,0.011,24.859,0.013 c0.221,0,0.439,0,0.654,0C56.242,24.51,56.235,39.205,56.229,53.885z"></path> <path fill="#142667" d="M36.451,14.705c4.398,0.002,8.797,0.005,13.196,0.007c1.224,0.001,1.647,0.423,1.647,1.649 c0,5.043-0.004,10.084-0.008,15.125c0,1.225-0.427,1.65-1.646,1.651c-8.798-0.005-17.594-0.009-26.392-0.015 c-1.185-0.001-1.591-0.415-1.591-1.618c0.002-5.084,0.004-10.168,0.008-15.25c0.001-1.143,0.424-1.555,1.59-1.556 C27.655,14.699,32.054,14.703,36.451,14.705z M48.789,17.24c-8.235-0.004-16.412-0.008-24.588-0.012 c-0.002,4.484-0.004,8.928-0.007,13.354c8.223,0.004,16.398,0.008,24.588,0.012C48.785,26.129,48.787,21.717,48.789,17.24z"></path> <path fill="#142667" d="M36.401,40.621c-4.313-0.002-8.628-0.004-12.942-0.006c-0.228,0-0.457,0.006-0.684-0.017 c-0.594-0.055-1.047-0.502-1.107-1.076c-0.065-0.615,0.287-1.156,0.889-1.318c0.236-0.062,0.492-0.077,0.738-0.077 c8.773,0.002,17.547,0.006,26.32,0.015c0.266,0,0.543,0.018,0.797,0.092c0.562,0.167,0.925,0.745,0.852,1.292 c-0.076,0.574-0.535,1.029-1.111,1.085c-0.227,0.023-0.456,0.018-0.685,0.018C45.113,40.625,40.757,40.623,36.401,40.621z"></path> <path fill="#142667" d="M36.486,48.092c-4.377-0.002-8.754-0.004-13.131-0.008c-0.248,0-0.506,0.021-0.742-0.038 c-0.559-0.137-0.893-0.51-0.95-1.09c-0.056-0.566,0.267-1.09,0.808-1.256c0.271-0.084,0.57-0.101,0.857-0.103 c8.752,0,17.504,0.004,26.258,0.009c0.103,0,0.207-0.002,0.311,0.002c0.807,0.042,1.365,0.544,1.375,1.239 c0.01,0.707-0.578,1.246-1.408,1.247C45.404,48.099,40.945,48.092,36.486,48.092z"></path> </g> </g> </svg> 