<?xml version="1.0" encoding="UTF-8"?> <!-- Generator: Adobe Illustrator 15.1.0, SVG Export Plug-In . SVG Version: 6.00 Build 0) --> <svg xmlns="http://www.w3.org/2000/svg" xmlns:xlink="http://www.w3.org/1999/xlink" id="Layer_1" x="0px" y="0px" width="54.791px" height="64.91px" viewBox="0 0 54.791 64.91" xml:space="preserve"> <g> <g> <path fill="#252C64" d="M0,62.49c0.006-11.959,0.012-23.916,0.018-35.875c0.04-0.045,0.093-0.086,0.115-0.139 c0.646-1.527,1.562-2.141,3.212-2.14c3.06,0.002,6.119,0.003,9.179,0.005c0.221,0,0.441,0,0.683,0c0-0.355,0-0.609,0-0.861 c0.004-7.363,0.013-14.729,0.001-22.092C13.206,0.795,13.333,0.324,13.849,0c11.072,0.006,22.143,0.012,33.214,0.017 c2.576,2.577,5.152,5.157,7.729,7.736c-0.008,17.494-0.017,34.988-0.025,52.482c-0.333,0.502-0.802,0.642-1.397,0.64 c-8.062-0.018-16.127-0.018-24.19-0.021c-0.245,0-0.49,0-0.746,0c-0.032,0.602,0.002,1.137-0.099,1.646 c-0.256,1.293-1.177,1.983-2.346,2.41c-7.902-0.004-15.804-0.008-23.706-0.011C1.175,64.424,0.341,63.691,0,62.49z M15.287,2.058 c-0.004,7.449-0.007,14.85-0.011,22.285c0.276,0,0.507,0.001,0.736,0.001c3.106,0.001,6.212,0.003,9.316,0.004 c1.156,0.001,2.052,0.505,2.615,1.488c0.25,0.436,0.517,0.555,0.988,0.553c2.789-0.02,5.578-0.022,8.366,0.012 c0.355,0.004,0.823,0.17,1.029,0.431c0.183,0.229,0.22,0.793,0.057,1.023c-0.2,0.285-0.673,0.522-1.031,0.526 c-2.745,0.042-5.492,0.021-8.238,0.02c-0.223,0-0.445,0-0.671,0c0,1.057-0.001,2.02-0.001,3.049c0.256,0,0.482,0,0.708,0 c2.705,0.002,5.408-0.013,8.112,0.02c0.36,0.006,0.829,0.152,1.044,0.407c0.189,0.223,0.188,0.713,0.102,1.041 c-0.124,0.469-0.576,0.56-1.025,0.56c-2.746-0.003-5.493-0.002-8.24-0.004c-0.225,0-0.451,0-0.689,0 c-0.001,1.047-0.002,2.025-0.002,3.047c0.271,0,0.5,0,0.729,0c2.726,0.002,5.45-0.001,8.176,0.006 c0.762,0.002,1.186,0.378,1.187,1.015c0.002,0.631-0.427,1.003-1.193,1.005c-2.746,0.003-5.493,0-8.239-0.002 c-0.223,0-0.445,0-0.672,0c0,1.055,0,2.018-0.001,3.047c0.257,0,0.482,0,0.709,0c2.704,0.002,5.409-0.011,8.112,0.021 c0.36,0.004,0.829,0.15,1.044,0.405c0.189,0.225,0.188,0.715,0.102,1.041c-0.123,0.469-0.575,0.56-1.025,0.56 c-2.747-0.001-5.492-0.002-8.239-0.004c-0.226,0-0.451,0-0.691,0c-0.001,1.049-0.002,2.027-0.002,3.047c0.271,0,0.5,0,0.729,0 c2.725,0.002,5.45,0.001,8.175,0.006c0.762,0.002,1.186,0.378,1.188,1.015c0.003,0.631-0.426,1.003-1.193,1.005 c-2.746,0.005-5.492,0-8.238-0.002c-0.223,0-0.445,0-0.672,0c-0.001,1.057-0.002,2.02-0.002,3.049c0.256,0,0.482,0,0.709,0 c2.703,0.002,5.408-0.013,8.111,0.02c0.361,0.006,0.83,0.152,1.045,0.407c0.189,0.223,0.188,0.713,0.102,1.041 c-0.123,0.469-0.575,0.56-1.024,0.56c-2.747-0.003-5.493-0.004-8.239-0.006c-0.227,0.002-0.452,0.002-0.695,0.002 c-0.001,1.723-0.002,3.377-0.003,5.027c8.118,0.004,16.194,0.008,24.249,0.012c0.008-16.574,0.016-33.102,0.024-49.65 c-1.701-0.001-3.349-0.002-4.996-0.002c-2.007-0.002-2.049-0.043-2.05-2.049c0-1.664,0.002-3.326,0.003-5.021 C35.515,2.067,25.425,2.062,15.287,2.058z M2.038,42.523c-0.002,4.941-0.005,9.883-0.006,14.824 c-0.001,1.148,0.316,1.47,1.46,1.47c7.138,0.004,14.276,0.007,21.413,0.011c1.143,0,1.468-0.325,1.469-1.464 c0.004-9.842,0.01-19.682,0.014-29.523c0.001-1.141-0.326-1.47-1.465-1.47c-7.137-0.004-14.275-0.007-21.413-0.011 c-1.147,0-1.463,0.315-1.464,1.464C2.042,32.725,2.04,37.623,2.038,42.523z M2.085,60.779c-0.296,2.057,0.42,2.11,1.797,2.107 c6.965-0.021,13.928-0.004,20.893-0.004c0.252,0,0.508,0,0.755-0.043c0.5-0.088,0.775-0.425,0.825-0.909 c0.041-0.391,0.009-0.791,0.01-1.139C18.233,60.788,10.162,60.783,2.085,60.779z M51.03,7.091 c-1.088-1.103-2.205-2.235-3.305-3.349c0,1.068,0,2.193-0.001,3.348C48.886,7.09,50.013,7.09,51.03,7.091z"></path> <path fill="#252C64" d="M44.632,33.479c-0.652,0-1.305,0.007-1.957-0.003c-0.659-0.009-1.065-0.386-1.076-0.976 c-0.011-0.594,0.391-1.031,1.021-1.038c1.346-0.017,2.693-0.017,4.039,0.002c0.622,0.008,1.038,0.464,1.019,1.044 c-0.02,0.561-0.424,0.956-1.025,0.97C45.979,33.49,45.305,33.479,44.632,33.479z"></path> <path fill="#252C64" d="M44.636,53.762c-0.674,0-1.348,0.011-2.021-0.003c-0.611-0.013-1.01-0.397-1.026-0.962 c-0.018-0.592,0.384-1.043,1.007-1.052c1.346-0.019,2.693-0.015,4.039,0.002c0.627,0.006,1.045,0.452,1.031,1.03 c-0.013,0.586-0.428,0.974-1.073,0.983C45.94,53.77,45.288,53.762,44.636,53.762z"></path> <path fill="#252C64" d="M45.13,38.549c-0.505,0.002-1.01,0.014-1.514-0.002c-0.604-0.019-0.998-0.413-1.006-0.981 c-0.007-0.568,0.378-1.016,0.963-1.029c1.051-0.024,2.104-0.024,3.154,0.004c0.576,0.014,0.97,0.487,0.945,1.046 c-0.021,0.535-0.412,0.938-0.966,0.96C46.182,38.565,45.655,38.549,45.13,38.549z"></path> <path fill="#252C64" d="M45.115,48.691c-0.505,0-1.01,0.012-1.514-0.005c-0.6-0.018-0.993-0.422-0.996-0.99 c-0.003-0.566,0.384-1.006,0.973-1.02c1.051-0.022,2.104-0.022,3.153,0.004c0.55,0.016,0.934,0.462,0.938,0.993 c0.004,0.562-0.395,0.979-0.977,1.019c-0.021,0-0.042,0-0.063,0C46.124,48.692,45.62,48.691,45.115,48.691z"></path> <path fill="#252C64" d="M45.144,28.408c-0.506,0-1.01,0.012-1.515-0.002c-0.608-0.019-1.003-0.407-1.014-0.974 c-0.012-0.594,0.39-1.029,1.019-1.04c1.008-0.02,2.019-0.02,3.027-0.001c0.621,0.012,1.037,0.464,1.018,1.044 c-0.019,0.561-0.423,0.954-1.021,0.972C46.152,28.419,45.647,28.408,45.144,28.408z"></path> <path fill="#252C64" d="M45.579,43.619c-0.335,0.002-0.672,0.016-1.007-0.002c-0.559-0.031-0.94-0.432-0.95-0.971 c-0.01-0.541,0.354-1.006,0.891-1.033c0.755-0.037,1.514-0.037,2.269,0.001c0.534,0.025,0.908,0.503,0.89,1.032 c-0.018,0.537-0.407,0.942-0.957,0.97C46.337,43.636,45.958,43.619,45.579,43.619z"></path> <path fill="#252C64" d="M14.279,28.399c2.915,0.001,5.831,0.001,8.746,0.004c1.011,0.001,1.328,0.315,1.33,1.315 c0.003,1.184,0.005,2.367-0.003,3.549c-0.005,0.855-0.342,1.213-1.174,1.212c-5.979,0.003-11.957,0-17.937-0.009 c-0.808,0-1.161-0.355-1.166-1.154c-0.007-1.246-0.005-2.492,0.001-3.738c0.005-0.836,0.351-1.18,1.203-1.182 C8.279,28.393,11.278,28.397,14.279,28.399z M22.303,30.474c-5.427-0.003-10.798-0.006-16.171-0.009c0,0.672,0,1.297,0,1.951 c5.401,0.003,10.772,0.006,16.17,0.009C22.302,31.763,22.302,31.138,22.303,30.474z"></path> <path fill="#252C64" d="M21.342,50.713c1.7,0.009,3.015,1.361,3.001,3.088c-0.016,1.656-1.377,2.997-3.045,2.992 c-1.694-0.005-3.043-1.366-3.035-3.067C18.269,52.022,19.615,50.704,21.342,50.713z M22.315,53.774 c0.016-0.512-0.463-1.017-0.98-1.036c-0.516-0.018-1.02,0.453-1.045,0.977c-0.025,0.508,0.459,1.018,0.986,1.035 C21.795,54.77,22.3,54.296,22.315,53.774z"></path> <path fill="#252C64" d="M14.228,50.71c1.706,0.005,3.026,1.351,3.016,3.071c-0.012,1.664-1.363,3.008-3.029,3.009 c-1.696,0.001-3.053-1.357-3.051-3.055C11.165,52.03,12.507,50.705,14.228,50.71z M15.217,53.755 c0.007-0.514-0.479-1.01-0.997-1.02c-0.516-0.009-1.014,0.472-1.028,0.993c-0.015,0.51,0.476,1.01,1.001,1.018 C14.713,54.757,15.21,54.274,15.217,53.755z"></path> <path fill="#252C64" d="M7.149,50.706c1.699,0.011,3.011,1.364,2.994,3.093c-0.016,1.654-1.382,2.994-3.051,2.987 c-1.693-0.007-3.037-1.372-3.029-3.075C4.073,52.012,5.423,50.697,7.149,50.706z M7.1,52.731 c-0.517,0.004-1.007,0.495-1.007,1.013c-0.002,0.514,0.499,1.005,1.021,0.999c0.524-0.004,1.01-0.493,1.004-1.013 C8.11,53.215,7.615,52.728,7.1,52.731z"></path> <path fill="#252C64" d="M21.372,43.613c1.689,0.015,2.996,1.381,2.974,3.113c-0.021,1.65-1.399,2.981-3.071,2.967 c-1.688-0.015-3.024-1.388-3.009-3.095C18.281,44.907,19.64,43.601,21.372,43.613z M21.317,47.652 c0.524-0.006,1.01-0.497,1.002-1.017c-0.008-0.516-0.504-1.001-1.02-0.997c-0.518,0.006-1.007,0.498-1.006,1.016 C20.294,47.168,20.795,47.656,21.317,47.652z"></path> <path fill="#252C64" d="M14.237,43.61c1.703,0.007,3.022,1.356,3.01,3.077c-0.014,1.662-1.369,3.004-3.036,3.003 c-1.696-0.001-3.049-1.361-3.044-3.061C11.171,44.925,12.515,43.605,14.237,43.61z M15.22,46.636 c-0.005-0.52-0.496-1.002-1.016-1.001c-0.518,0.004-1.008,0.496-1.01,1.014c-0.002,0.512,0.498,1.002,1.021,1.001 C14.739,47.646,15.226,47.155,15.22,46.636z"></path> <path fill="#252C64" d="M10.147,46.607c0.006,1.713-1.332,3.076-3.023,3.079c-1.698,0.003-3.057-1.351-3.057-3.046 c0-1.682,1.326-3.025,2.996-3.034C8.794,43.6,10.142,44.91,10.147,46.607z M8.121,46.633c-0.006-0.52-0.495-1.003-1.017-1.001 c-0.516,0.004-1.007,0.495-1.009,1.013c-0.002,0.512,0.497,1.003,1.021,1.001C7.64,47.642,8.126,47.152,8.121,46.633z"></path> <path fill="#252C64" d="M21.348,36.516c1.7,0.007,3.016,1.359,3.001,3.084c-0.014,1.658-1.375,2.999-3.042,2.994 c-1.694-0.003-3.044-1.364-3.038-3.065C18.276,37.825,19.622,36.507,21.348,36.516z M21.301,40.553 c0.521,0.008,1.017-0.476,1.022-0.995c0.005-0.514-0.482-1.009-1-1.017c-0.516-0.008-1.012,0.473-1.025,0.994 C20.284,40.047,20.775,40.545,21.301,40.553z"></path> <path fill="#252C64" d="M14.272,36.513c1.691,0.013,2.998,1.376,2.978,3.108c-0.021,1.65-1.396,2.982-3.067,2.969 c-1.689-0.012-3.027-1.384-3.013-3.091C11.185,37.808,12.542,36.5,14.272,36.513z M15.224,39.575 c0.019-0.51-0.46-1.018-0.979-1.037c-0.516-0.022-1.018,0.446-1.047,0.972c-0.027,0.508,0.455,1.018,0.982,1.039 C14.698,40.571,15.205,40.097,15.224,39.575z"></path> <path fill="#252C64" d="M10.151,39.527c0.001,1.707-1.346,3.062-3.041,3.06c-1.694-0.003-3.045-1.364-3.039-3.063 c0.006-1.678,1.336-3.01,3.012-3.015C8.808,36.504,10.149,37.822,10.151,39.527z M7.138,40.546 c0.526-0.016,1.004-0.513,0.986-1.03C8.107,39,7.603,38.521,7.089,38.534c-0.519,0.012-1,0.513-0.99,1.028 C6.11,40.078,6.618,40.56,7.138,40.546z"></path> <g> <path fill="#252C64" d="M36.903,17.006c-0.018,0.057-0.035,0.109-0.051,0.164c-0.107,0.379-0.32,0.68-0.667,0.869 c-1.557,0.853-3.114,1.701-4.676,2.544c-0.36,0.195-0.754,0.309-1.163,0.355c-0.028,0.004-0.056,0.016-0.083,0.021 c-3.063-0.002-6.128-0.003-9.192-0.005c-0.156-0.07-0.203-0.189-0.203-0.361c0.007-1.539,0.005-3.08,0.006-4.619 c0-0.279,0.08-0.359,0.355-0.359c0.609-0.002,1.219,0.003,1.828-0.003c0.072,0,0.158-0.025,0.215-0.07 c0.586-0.438,1.243-0.71,1.964-0.815c1.021-0.149,1.98,0.04,2.873,0.566c0.061,0.035,0.14,0.055,0.209,0.055 c0.64,0.004,1.278,0,1.916,0.005c0.605,0,1.13,0.41,1.285,0.994c0.063,0.236,0.055,0.469-0.013,0.73 c0.076-0.037,0.127-0.062,0.178-0.087c1.017-0.51,2.033-1.018,3.05-1.524c0.818-0.408,1.711-0.089,2.062,0.737 c0.045,0.105,0.071,0.219,0.106,0.328C36.903,16.689,36.903,16.848,36.903,17.006z M26.754,17.479c0.054,0,0.103,0,0.15,0 c1.103,0.001,2.203,0.003,3.306,0.002c0.381,0,0.688-0.232,0.783-0.58c0.135-0.492-0.194-1.023-0.829-1.021 c-0.643,0.004-1.286-0.002-1.929,0.004c-0.135,0-0.248-0.035-0.364-0.104c-1.36-0.786-2.714-0.758-4.062,0.041 c-0.189,0.11-0.27,0.239-0.267,0.472c0.013,1.324,0.006,2.646,0.005,3.969c0,0.049,0,0.1,0,0.162c0.059,0,0.103,0,0.148,0.001 c2.053,0,4.106,0.002,6.16,0.002c0.53,0.001,1.032-0.114,1.5-0.368c1.511-0.823,3.022-1.646,4.532-2.47 c0.361-0.197,0.53-0.57,0.464-0.996c-0.057-0.359-0.361-0.68-0.729-0.757c-0.23-0.047-0.445,0.006-0.652,0.109 c-1.325,0.665-2.651,1.331-3.98,1.986c-0.114,0.059-0.253,0.09-0.38,0.092c-1.231,0.005-2.463,0.003-3.694,0.002 c-0.049,0-0.098,0-0.163,0C26.754,17.839,26.754,17.669,26.754,17.479z M21.419,16.15c-0.002,1.422-0.002,2.838-0.003,4.264 c0.526,0,1.05,0.001,1.58,0.001c0.001-1.42,0.001-2.836,0.003-4.264C22.468,16.151,21.946,16.15,21.419,16.15z"></path> <path fill="#252C64" d="M31.399,4.931c0.199,0.168,0.215,0.242,0.095,0.48c-0.259,0.52-0.518,1.035-0.777,1.553 c-0.019,0.039-0.036,0.08-0.056,0.125c0.03,0.01,0.045,0.018,0.061,0.02c0.392,0.055,0.766,0.164,1.111,0.358 c1.162,0.645,1.829,1.627,1.859,2.963c0.036,1.594,0.006,3.188,0.005,4.783c0,0.043,0,0.088,0,0.131c-0.187,0-0.355,0-0.53,0 c-0.002-0.045-0.006-0.082-0.006-0.119c0.001-1.543,0.003-3.088,0.002-4.631c-0.001-0.18-0.013-0.359-0.038-0.535 c-0.197-1.346-1.437-2.434-2.794-2.446c-0.957-0.011-1.912-0.022-2.867,0.002c-1.021,0.025-1.817,0.495-2.381,1.345 c-0.357,0.535-0.469,1.139-0.466,1.775c0.007,1.125,0.001,2.252,0.001,3.379c0,0.053-0.001,0.104-0.001,0.154 c-0.192,0-0.36,0-0.537,0c0-0.039,0-0.066,0.001-0.096c0-1.215,0-2.428,0.003-3.643c0.001-0.146,0.012-0.293,0.03-0.438 c0.18-1.438,1.258-2.621,2.668-2.933c0.112-0.025,0.224-0.047,0.346-0.072c-0.025-0.055-0.043-0.096-0.064-0.137 c-0.257-0.514-0.514-1.027-0.771-1.541c-0.119-0.239-0.104-0.312,0.098-0.48C28.06,4.93,29.729,4.93,31.399,4.931z M26.935,5.47 c0.021,0.047,0.037,0.084,0.055,0.121c0.227,0.455,0.454,0.906,0.678,1.363c0.037,0.075,0.076,0.11,0.168,0.11 c0.708-0.004,1.417-0.004,2.127-0.002c0.059,0,0.105-0.002,0.139-0.072c0.238-0.485,0.482-0.968,0.725-1.452 c0.008-0.016,0.014-0.037,0.025-0.066C29.538,5.471,28.243,5.471,26.935,5.47z"></path> <path fill="#252C64" d="M29.158,13.764c0,0.162,0,0.332,0,0.506c-0.187,0-0.358,0-0.54,0c0-0.172,0-0.338,0-0.52 c-0.355,0-0.704,0-1.061-0.001c0-0.184,0-0.352,0-0.535c0.053,0,0.102,0,0.15,0.001c0.547,0,1.094,0,1.64-0.002 c0.329,0,0.559-0.178,0.596-0.455c0.045-0.332-0.196-0.611-0.532-0.613c-0.354-0.004-0.709,0-1.064-0.002 c-0.548-0.004-1.009-0.423-1.059-0.958c-0.051-0.557,0.316-1.059,0.862-1.159c0.146-0.027,0.298-0.018,0.464-0.025 c0-0.174,0-0.348,0-0.527c0.186,0,0.355,0,0.54,0c0,0.172,0,0.346,0,0.531c0.36,0,0.704,0,1.062,0.001 c0,0.18,0,0.348-0.001,0.537c-0.04,0-0.084-0.001-0.128-0.001c-0.572,0-1.144-0.002-1.715,0c-0.244,0-0.441,0.139-0.521,0.357 c-0.071,0.199-0.009,0.434,0.157,0.58c0.119,0.105,0.266,0.131,0.418,0.133c0.355,0.002,0.71-0.01,1.064,0.008 c0.79,0.036,1.258,0.921,0.85,1.599c-0.211,0.351-0.528,0.519-0.934,0.528c-0.071,0.002-0.143,0.002-0.214,0.004 C29.187,13.75,29.18,13.754,29.158,13.764z"></path> </g> </g> </g> </svg> 